HIERARCHY
ROOT Hips
{
	OFFSET -0.001795 -0.223333 0.028219
	CHANNELS 6 Xposition Yposition Zposition Zrotation Yrotation Xrotation 
	JOINT LeftUpLeg
	{
		OFFSET 0.069520 -0.091406 -0.006815
		CHANNELS 3 Zrotation Yrotation Xrotation
		JOINT LeftLeg
		{
			OFFSET 0.034277 -0.375199 -0.004496
			CHANNELS 3 Zrotation Yrotation Xrotation
			JOINT LeftFoot
			{
				OFFSET -0.013596 -0.397961 -0.043693
				CHANNELS 3 Zrotation Yrotation Xrotation
				JOINT LeftToe
				{
					OFFSET 0.026358 -0.055791 0.119288
					CHANNELS 3 Zrotation Yrotation Xrotation
					End Site
					{
						OFFSET 0.000000 0.000000 0.000000
					}
				}
			}
		}
	}
	JOINT RightUpLeg
	{
		OFFSET -0.067670 -0.090522 -0.004320
		CHANNELS 3 Zrotation Yrotation Xrotation
		JOINT RightLeg
		{
			OFFSET -0.038290 -0.382569 -0.008850
			CHANNELS 3 Zrotation Yrotation Xrotation
			JOINT RightFoot
			{
				OFFSET 0.015774 -0.398415 -0.042312
				CHANNELS 3 Zrotation Yrotation Xrotation
				JOINT RightToe
				{
					OFFSET -0.025372 -0.048144 0.123348
					CHANNELS 3 Zrotation Yrotation Xrotation
					End Site
					{
						OFFSET 0.000000 0.000000 0.000000
					}
				}
			}
		}
	}
	JOINT Spine
	{
		OFFSET -0.002533 0.108963 -0.026696
		CHANNELS 3 Zrotation Yrotation Xrotation
		JOINT Spine1
		{
			OFFSET 0.005487 0.135180 0.001092
			CHANNELS 3 Zrotation Yrotation Xrotation
			JOINT Spine2
			{
				OFFSET 0.001457 0.052922 0.025425
				CHANNELS 3 Zrotation Yrotation Xrotation
				JOINT Neck
				{
					OFFSET -0.002778 0.213870 -0.042857
					CHANNELS 3 Zrotation Yrotation Xrotation
					JOINT Head
					{
						OFFSET 0.005152 0.064970 0.051349
						CHANNELS 3 Zrotation Yrotation Xrotation
						End Site
						{
							OFFSET 0.000000 0.000000 0.000000
						}
					}
				}
				JOINT LeftShoulder
				{
					OFFSET 0.078845 0.121749 -0.034090
					CHANNELS 3 Zrotation Yrotation Xrotation
					JOINT LeftArm
					{
						OFFSET 0.090977 0.030469 -0.008868
						CHANNELS 3 Zrotation Yrotation Xrotation
						JOINT LeftForeArm
						{
							OFFSET 0.259612 -0.012772 -0.027456
							CHANNELS 3 Zrotation Yrotation Xrotation
							JOINT LeftHand
							{
								OFFSET 0.249234 0.008986 -0.001171
								CHANNELS 3 Zrotation Yrotation Xrotation
								End Site
								{
									OFFSET 0.000000 0.000000 0.000000
								}
							}
						}
					}
				}
				JOINT RightShoulder
				{
					OFFSET -0.081759 0.118833 -0.038615
					CHANNELS 3 Zrotation Yrotation Xrotation
					JOINT RightArm
					{
						OFFSET -0.096012 0.032551 -0.009143
						CHANNELS 3 Zrotation Yrotation Xrotation
						JOINT RightForeArm
						{
							OFFSET -0.253742 -0.013329 -0.021401
							CHANNELS 3 Zrotation Yrotation Xrotation
							JOINT RightHand
							{
								OFFSET -0.255298 0.007772 -0.005559
								CHANNELS 3 Zrotation Yrotation Xrotation
								End Site
								{
									OFFSET 0.000000 0.000000 0.000000
								}
							}
						}
					}
				}
			}
		}
	}
}
MOTION
Frames: 7
Frame Time: 0.050000
0.000000 0.951411 0.000000 -2.167071 -11.443002 7.031752 7.891641 -0.111286 -4.856033 0.598532 0.017268 -2.520291 0.979317 4.481247 10.431289 0.000000 0.000000 0.000000 0.651352 0.593183 -6.183055 -1.280805 0.070797 -0.681639 0.764780 -4.491808 10.573337 0.000000 0.000000 0.000000 3.002934 0.459316 -6.906967 -7.064749 3.130664 -3.278857 -4.394660 6.864999 6.758788 8.131147 -4.850255 -9.409967 0.000000 0.000000 0.000000 -4.721494 -11.790337 4.076244 -61.430788 -25.509916 6.112670 -162.383143 -63.424532 159.014473 0.000000 0.000000 0.000000 1.113525 7.991500 2.810050 69.263082 38.072842 18.038132 -139.292708 74.305304 -120.546113 0.000000 0.000000 0.000000 
-0.000688 0.951128 0.000448 -2.746027 -12.870009 7.777662 9.455377 0.004340 -3.502066 -0.131451 0.171884 -4.702124 1.210944 4.671236 10.116856 0.000000 0.000000 0.000000 1.327677 0.664359 -6.879552 -1.268143 0.057018 -0.866099 0.823466 -4.780257 11.000604 0.000000 0.000000 0.000000 2.272534 0.498706 -7.527544 -7.821616 3.454011 -3.373670 -6.059946 9.748651 5.362107 10.983785 -6.889027 -8.430222 0.000000 0.000000 0.000000 -3.382145 -11.165095 3.615777 -60.215871 -22.947357 4.326992 -160.588475 -61.138237 152.735022 0.000000 0.000000 0.000000 -2.444328 7.707942 2.670818 73.195139 47.102252 27.699853 -124.549920 68.868198 -96.543181 0.000000 0.000000 0.000000 
-0.001258 0.950226 0.000648 -2.638957 -11.563673 7.254900 9.545869 -0.015758 -3.290211 0.349528 0.151074 -5.177261 0.487307 3.813685 11.276442 0.000000 0.000000 0.000000 1.860241 0.526027 -5.677509 -2.227777 0.127231 -0.955658 0.364598 -5.569812 11.209605 0.000000 0.000000 0.000000 1.208361 0.399993 -6.828453 -7.712748 3.415322 -3.334029 -8.930386 12.051952 3.883024 12.186681 -8.376468 -5.401635 0.000000 0.000000 0.000000 -2.832551 -10.502700 3.123257 -58.765408 -20.560574 2.664438 -158.443392 -59.272569 144.588182 0.000000 0.000000 0.000000 -4.728335 9.398814 3.055245 68.166016 57.688505 34.898400 -110.844896 55.291906 -64.694993 0.000000 0.000000 0.000000 
-0.001768 0.950077 0.000937 -3.123136 -12.758398 7.962063 10.228452 0.037833 -2.708535 0.499155 0.184200 -6.166618 0.010346 2.741806 10.797365 0.000000 0.000000 0.000000 2.171496 0.630755 -6.615171 -2.122021 0.148150 -0.375534 0.484165 -5.127465 10.388514 0.000000 0.000000 0.000000 1.574896 0.458873 -7.331332 -9.827496 4.302146 -4.035731 -11.251579 15.238304 3.432672 15.389772 -11.205605 -4.385873 0.000000 0.000000 0.000000 -0.847699 -10.438490 3.128365 -56.648528 -18.752020 1.327964 -165.034864 -60.750561 153.721800 0.000000 0.000000 0.000000 -10.890062 9.814673 2.420028 60.169378 67.698777 39.227285 -107.562091 40.002262 -42.837510 0.000000 0.000000 0.000000 
-0.002051 0.950718 0.001615 -3.543381 -12.962268 7.892959 10.021388 0.037657 -2.850365 1.138931 0.111022 -5.694384 0.094970 2.920163 11.067247 0.000000 0.000000 0.000000 2.301452 0.592075 -6.313294 -2.351914 0.151542 -0.606543 1.455411 -3.349079 10.529898 0.000000 0.000000 0.000000 1.324974 0.396172 -6.583204 -11.440096 4.928313 -4.964636 -12.564322 17.167524 3.327876 17.165594 -12.570187 -4.629216 0.000000 0.000000 0.000000 -0.604839 -11.606638 3.442428 -53.621124 -16.183579 0.065564 -179.255828 -63.758907 175.970282 0.000000 0.000000 0.000000 -17.126555 10.390980 1.648804 31.395852 75.825610 24.505526 -107.440397 24.257699 -23.300303 0.000000 0.000000 0.000000 
-0.002284 0.951535 0.002888 -4.358679 -12.794699 8.708293 10.919995 0.054073 -2.496702 1.018008 0.215717 -7.442347 -0.005572 2.962709 11.989458 0.000000 0.000000 0.000000 2.973189 0.685831 -7.057129 -2.489436 0.181218 -0.296716 1.651478 -3.515393 11.581947 0.000000 0.000000 0.000000 1.274671 0.375903 -6.355579 -12.754027 5.329525 -6.351673 -13.713787 19.119369 3.068853 18.970056 -14.391288 -3.988443 0.000000 0.000000 0.000000 0.894976 -11.216264 3.460367 -50.969232 -15.328865 -0.406177 160.451993 -62.767029 -153.180681 0.000000 0.000000 0.000000 -22.838218 10.823840 0.781052 -4.869858 72.292864 -1.245488 -108.871319 13.756923 -9.621725 0.000000 0.000000 0.000000 
-0.002294 0.952754 0.004847 -4.724114 -12.616707 9.288244 11.133319 0.044939 -3.070181 1.652084 0.166483 -7.263680 -0.068629 2.842401 11.897539 0.000000 0.000000 0.000000 3.475893 0.743223 -7.483825 -2.676943 0.183398 -0.494031 2.202024 -2.378070 11.457271 0.000000 0.000000 0.000000 0.853133 0.347213 -6.095444 -14.172750 5.788467 -7.481967 -14.363226 19.735599 3.136049 18.712714 -14.375788 -3.530735 0.000000 0.000000 0.000000 0.547420 -10.088958 3.032402 -49.151771 -14.488375 -0.566969 140.711881 -58.351328 -120.549323 0.000000 0.000000 0.000000 -26.607141 10.720012 0.216298 -24.285346 65.555944 -11.977971 -109.950731 6.768347 -0.144497 0.000000 0.000000 0.000000 
